<mxfile host="www.draw.io" modified="2020-03-02T04:20:20.653Z" agent="Mozilla/5.0 (Windows NT 10.0; Win64; x64) AppleWebKit/537.36 (KHTML, like Gecko) Chrome/80.0.3987.122 Safari/537.36" etag="osdsbAfMxH0iBm5ugfM5" version="12.7.9" type="github">
  <diagram id="pjV_Bn-TTfKLL7ikVDOk" name="Page-1">
    <mxGraphModel dx="1024" dy="517" grid="1" gridSize="10" guides="1" tooltips="1" connect="1" arrows="1" fold="1" page="1" pageScale="1" pageWidth="850" pageHeight="1100" math="0" shadow="0">
      <root>
        <mxCell id="0" />
        <mxCell id="1" parent="0" />
        <mxCell id="XfKxhjMmmsuSdTdvYUGt-25" value="CoolegeId" style="html=1;whiteSpace=wrap;ellipse;fontSize=11;fontColor=#ffffff;fontStyle=6;spacing=5;strokeOpacity=0;fillOpacity=100;rounded=1;absoluteArcSize=1;arcSize=9.6;fillColor=#ff9e56;strokeWidth=1.2;" parent="1" vertex="1">
          <mxGeometry x="84" y="60" width="108" height="48" as="geometry" />
        </mxCell>
        <mxCell id="XfKxhjMmmsuSdTdvYUGt-26" value="Est._Date" style="html=1;whiteSpace=wrap;ellipse;fontSize=11;fontColor=#ffffff;fontStyle=2;spacing=5;strokeOpacity=0;fillOpacity=100;rounded=1;absoluteArcSize=1;arcSize=9.6;fillColor=#ff9e56;strokeWidth=1.2;" parent="1" vertex="1">
          <mxGeometry y="132" width="108" height="48" as="geometry" />
        </mxCell>
        <mxCell id="XfKxhjMmmsuSdTdvYUGt-27" value="College" style="html=1;whiteSpace=wrap;;fontSize=11;fontColor=#ffffff;fontStyle=2;spacing=5;strokeOpacity=0;fillOpacity=100;rounded=1;absoluteArcSize=1;arcSize=9.6;fillColor=#ff9e56;strokeWidth=1.2;" parent="1" vertex="1">
          <mxGeometry x="221" y="132" width="108" height="48" as="geometry" />
        </mxCell>
        <mxCell id="XfKxhjMmmsuSdTdvYUGt-28" value="admits" style="html=1;whiteSpace=wrap;rhombus;fontSize=11;fontColor=#666666;fontStyle=2;spacing=5;strokeColor=#fe5900;strokeOpacity=100;rounded=1;absoluteArcSize=1;arcSize=9.6;strokeWidth=2.4;" parent="1" vertex="1">
          <mxGeometry x="372" y="126" width="90" height="60" as="geometry" />
        </mxCell>
        <mxCell id="XfKxhjMmmsuSdTdvYUGt-143" style="edgeStyle=orthogonalEdgeStyle;rounded=0;orthogonalLoop=1;jettySize=auto;html=1;entryX=0.5;entryY=0;entryDx=0;entryDy=0;" parent="1" source="XfKxhjMmmsuSdTdvYUGt-29" target="XfKxhjMmmsuSdTdvYUGt-140" edge="1">
          <mxGeometry relative="1" as="geometry" />
        </mxCell>
        <mxCell id="C2otGo-5uAhBFfljH4TV-2" style="edgeStyle=orthogonalEdgeStyle;rounded=0;orthogonalLoop=1;jettySize=auto;html=1;entryX=0;entryY=0.5;entryDx=0;entryDy=0;" parent="1" source="XfKxhjMmmsuSdTdvYUGt-29" target="XfKxhjMmmsuSdTdvYUGt-30" edge="1">
          <mxGeometry relative="1" as="geometry">
            <Array as="points">
              <mxPoint x="582" y="246" />
            </Array>
          </mxGeometry>
        </mxCell>
        <mxCell id="C2otGo-5uAhBFfljH4TV-28" style="edgeStyle=orthogonalEdgeStyle;rounded=0;orthogonalLoop=1;jettySize=auto;html=1;" parent="1" source="XfKxhjMmmsuSdTdvYUGt-29" target="C2otGo-5uAhBFfljH4TV-3" edge="1">
          <mxGeometry relative="1" as="geometry">
            <Array as="points">
              <mxPoint x="582" y="320" />
              <mxPoint x="815" y="320" />
            </Array>
          </mxGeometry>
        </mxCell>
        <mxCell id="XfKxhjMmmsuSdTdvYUGt-29" value="Sudent" style="html=1;whiteSpace=wrap;;fontSize=11;fontColor=#ffffff;fontStyle=2;spacing=5;strokeOpacity=0;fillOpacity=100;rounded=1;absoluteArcSize=1;arcSize=9.6;fillColor=#ff9e56;strokeWidth=1.2;" parent="1" vertex="1">
          <mxGeometry x="528" y="132" width="108" height="48" as="geometry" />
        </mxCell>
        <mxCell id="C2otGo-5uAhBFfljH4TV-1" style="edgeStyle=orthogonalEdgeStyle;rounded=0;orthogonalLoop=1;jettySize=auto;html=1;entryX=0;entryY=0.5;entryDx=0;entryDy=0;" parent="1" source="XfKxhjMmmsuSdTdvYUGt-30" target="XfKxhjMmmsuSdTdvYUGt-42" edge="1">
          <mxGeometry relative="1" as="geometry" />
        </mxCell>
        <mxCell id="XfKxhjMmmsuSdTdvYUGt-30" value="Pay Fees in" style="html=1;whiteSpace=wrap;rhombus;fontSize=11;fontColor=#666666;spacing=5;strokeColor=#fe5900;strokeOpacity=100;rounded=1;absoluteArcSize=1;arcSize=9.6;strokeWidth=2.4;" parent="1" vertex="1">
          <mxGeometry x="990" y="216" width="90" height="60" as="geometry" />
        </mxCell>
        <mxCell id="XfKxhjMmmsuSdTdvYUGt-31" value="" style="html=1;jettySize=18;fontSize=11;strokeColor=#333333;strokeOpacity=100;strokeWidth=0.6;rounded=1;arcSize=0;edgeStyle=orthogonalEdgeStyle;startArrow=ERone;startSize=16;;endArrow=none;;exitX=1;exitY=0.5;exitPerimeter=1;entryX=0.01316126953620587;entryY=0.5;entryPerimeter=1;" parent="1" source="XfKxhjMmmsuSdTdvYUGt-27" target="XfKxhjMmmsuSdTdvYUGt-28" edge="1">
          <mxGeometry width="100" height="100" relative="1" as="geometry" />
        </mxCell>
        <mxCell id="XfKxhjMmmsuSdTdvYUGt-32" value="" style="html=1;jettySize=18;fontSize=11;strokeColor=#333333;strokeOpacity=100;strokeWidth=0.6;rounded=1;arcSize=0;edgeStyle=orthogonalEdgeStyle;startArrow=none;;endArrow=ERmany;endSize=10;;exitX=0.986838730463794;exitY=0.5;exitPerimeter=1;entryX=0;entryY=0.5;entryPerimeter=1;" parent="1" source="XfKxhjMmmsuSdTdvYUGt-28" target="XfKxhjMmmsuSdTdvYUGt-29" edge="1">
          <mxGeometry width="100" height="100" relative="1" as="geometry" />
        </mxCell>
        <mxCell id="XfKxhjMmmsuSdTdvYUGt-42" value="Student Financial Dept." style="html=1;whiteSpace=wrap;;fontSize=11;fontColor=#ffffff;spacing=5;strokeOpacity=0;fillOpacity=100;rounded=1;absoluteArcSize=1;arcSize=9.6;fillColor=#ff9e56;strokeWidth=1.2;" parent="1" vertex="1">
          <mxGeometry x="1147" y="100" width="108" height="48" as="geometry" />
        </mxCell>
        <mxCell id="XfKxhjMmmsuSdTdvYUGt-43" value="PayeeID*" style="html=1;whiteSpace=wrap;ellipse;fontSize=11;fontColor=#ffffff;fontStyle=2;spacing=5;strokeOpacity=0;fillOpacity=100;rounded=1;absoluteArcSize=1;arcSize=9.6;fillColor=#ff9e56;strokeWidth=1.2;" parent="1" vertex="1">
          <mxGeometry x="1279" y="40" width="108" height="48" as="geometry" />
        </mxCell>
        <mxCell id="XfKxhjMmmsuSdTdvYUGt-45" value="City" style="html=1;whiteSpace=wrap;ellipse;fontSize=11;fontColor=#ffffff;fontStyle=2;spacing=5;strokeOpacity=0;fillOpacity=100;rounded=1;absoluteArcSize=1;arcSize=9.6;fillColor=#ff9e56;strokeWidth=1.2;" parent="1" vertex="1">
          <mxGeometry x="528" width="108" height="48" as="geometry" />
        </mxCell>
        <mxCell id="XfKxhjMmmsuSdTdvYUGt-46" value="PayeeName*" style="html=1;whiteSpace=wrap;ellipse;fontSize=11;fontColor=#ffffff;fontStyle=2;spacing=5;strokeOpacity=0;fillOpacity=100;rounded=1;absoluteArcSize=1;arcSize=9.6;fillColor=#ff9e56;strokeWidth=1.2;" parent="1" vertex="1">
          <mxGeometry x="1531" y="100" width="108" height="48" as="geometry" />
        </mxCell>
        <mxCell id="XfKxhjMmmsuSdTdvYUGt-47" value="Name*" style="html=1;whiteSpace=wrap;ellipse;fontSize=11;fontColor=#ffffff;fontStyle=2;spacing=5;strokeOpacity=0;fillOpacity=100;rounded=1;absoluteArcSize=1;arcSize=9.6;fillColor=#ff9e56;strokeWidth=1.2;" parent="1" vertex="1">
          <mxGeometry x="1279" y="148" width="108" height="48" as="geometry" />
        </mxCell>
        <mxCell id="XfKxhjMmmsuSdTdvYUGt-48" value="CourseName" style="html=1;whiteSpace=wrap;ellipse;fontSize=11;fontColor=#ffffff;fontStyle=2;spacing=5;strokeOpacity=0;fillOpacity=100;rounded=1;absoluteArcSize=1;arcSize=9.6;fillColor=#ff9e56;strokeWidth=1.2;" parent="1" vertex="1">
          <mxGeometry x="1423" y="40" width="108" height="48" as="geometry" />
        </mxCell>
        <mxCell id="XfKxhjMmmsuSdTdvYUGt-49" value="Name" style="html=1;whiteSpace=wrap;ellipse;fontSize=11;fontColor=#ffffff;spacing=5;strokeOpacity=0;fillOpacity=100;rounded=1;absoluteArcSize=1;arcSize=9.6;fillColor=#ff9e56;strokeWidth=1.2;" parent="1" vertex="1">
          <mxGeometry x="696" y="48" width="108" height="48" as="geometry" />
        </mxCell>
        <mxCell id="XfKxhjMmmsuSdTdvYUGt-50" value="LastName" style="html=1;whiteSpace=wrap;ellipse;fontSize=11;fontColor=#ffffff;spacing=5;strokeOpacity=0;fillOpacity=100;rounded=1;absoluteArcSize=1;arcSize=9.6;fillColor=#ff9e56;strokeWidth=1.2;" parent="1" vertex="1">
          <mxGeometry x="852" y="96" width="108" height="48" as="geometry" />
        </mxCell>
        <mxCell id="XfKxhjMmmsuSdTdvYUGt-51" value="FirstName" style="html=1;whiteSpace=wrap;ellipse;fontSize=11;fontColor=#ffffff;spacing=5;strokeOpacity=0;fillOpacity=100;rounded=1;absoluteArcSize=1;arcSize=9.6;fillColor=#ff9e56;strokeWidth=1.2;" parent="1" vertex="1">
          <mxGeometry x="852" y="12" width="108" height="48" as="geometry" />
        </mxCell>
        <mxCell id="XfKxhjMmmsuSdTdvYUGt-52" value="Course" style="html=1;whiteSpace=wrap;ellipse;fontSize=11;fontColor=#ffffff;spacing=5;strokeOpacity=0;fillOpacity=100;rounded=1;absoluteArcSize=1;arcSize=9.6;fillColor=#ff9e56;strokeWidth=1.2;" parent="1" vertex="1">
          <mxGeometry x="696" y="192" width="108" height="48" as="geometry" />
        </mxCell>
        <mxCell id="XfKxhjMmmsuSdTdvYUGt-53" value="AdmissionDate" style="html=1;whiteSpace=wrap;ellipse;fontSize=11;fontColor=#ffffff;spacing=5;strokeOpacity=0;fillOpacity=100;rounded=1;absoluteArcSize=1;arcSize=9.6;fillColor=#ff9e56;strokeWidth=1.2;" parent="1" vertex="1">
          <mxGeometry x="696" y="132" width="108" height="48" as="geometry" />
        </mxCell>
        <mxCell id="XfKxhjMmmsuSdTdvYUGt-54" value="StudentID" style="html=1;whiteSpace=wrap;ellipse;fontSize=11;fontColor=#ffffff;fontStyle=4;spacing=5;strokeOpacity=0;fillOpacity=100;rounded=1;absoluteArcSize=1;arcSize=9.6;fillColor=#ff9e56;strokeWidth=1.2;" parent="1" vertex="1">
          <mxGeometry x="528" y="60" width="108" height="48" as="geometry" />
        </mxCell>
        <mxCell id="XfKxhjMmmsuSdTdvYUGt-55" value="College_name" style="html=1;whiteSpace=wrap;ellipse;fontSize=11;fontColor=#ffffff;spacing=5;strokeOpacity=0;fillOpacity=100;rounded=1;absoluteArcSize=1;arcSize=9.6;fillColor=#ff9e56;strokeWidth=1.2;" parent="1" vertex="1">
          <mxGeometry x="84" y="180" width="108" height="48" as="geometry" />
        </mxCell>
        <mxCell id="XfKxhjMmmsuSdTdvYUGt-56" value="Location" style="html=1;whiteSpace=wrap;ellipse;fontSize=11;fontColor=#ffffff;spacing=5;strokeOpacity=0;fillOpacity=100;rounded=1;absoluteArcSize=1;arcSize=9.6;fillColor=#ff9e56;strokeWidth=1.2;" parent="1" vertex="1">
          <mxGeometry x="222" y="60" width="108" height="48" as="geometry" />
        </mxCell>
        <mxCell id="XfKxhjMmmsuSdTdvYUGt-57" value="" style="html=1;jettySize=18;fontSize=11;strokeWidth=1.2;rounded=1;arcSize=0;edgeStyle=orthogonalEdgeStyle;startArrow=none;;endArrow=none;;exitX=0;exitY=0.5;exitPerimeter=1;entryX=0;entryY=0.5;entryPerimeter=1;" parent="1" source="XfKxhjMmmsuSdTdvYUGt-56" target="XfKxhjMmmsuSdTdvYUGt-27" edge="1">
          <mxGeometry width="100" height="100" relative="1" as="geometry" />
        </mxCell>
        <mxCell id="XfKxhjMmmsuSdTdvYUGt-58" value="" style="html=1;jettySize=18;fontSize=11;strokeWidth=1.2;rounded=1;arcSize=0;edgeStyle=orthogonalEdgeStyle;startArrow=none;;endArrow=none;;exitX=0.5;exitY=1;exitPerimeter=1;entryX=0;entryY=0.5;entryPerimeter=1;" parent="1" source="XfKxhjMmmsuSdTdvYUGt-25" target="XfKxhjMmmsuSdTdvYUGt-27" edge="1">
          <mxGeometry width="100" height="100" relative="1" as="geometry" />
        </mxCell>
        <mxCell id="XfKxhjMmmsuSdTdvYUGt-59" value="" style="html=1;jettySize=18;fontSize=11;strokeWidth=1.2;rounded=1;arcSize=0;edgeStyle=orthogonalEdgeStyle;startArrow=none;;endArrow=none;;exitX=0;exitY=0.5;exitPerimeter=1;entryX=1;entryY=0.5;entryPerimeter=1;" parent="1" source="XfKxhjMmmsuSdTdvYUGt-51" target="XfKxhjMmmsuSdTdvYUGt-49" edge="1">
          <mxGeometry width="100" height="100" relative="1" as="geometry" />
        </mxCell>
        <mxCell id="XfKxhjMmmsuSdTdvYUGt-60" value="" style="html=1;jettySize=18;fontSize=11;strokeWidth=1.2;rounded=1;arcSize=0;edgeStyle=orthogonalEdgeStyle;startArrow=none;;endArrow=none;;exitX=0;exitY=0.5;exitPerimeter=1;entryX=1;entryY=0.5;entryPerimeter=1;" parent="1" source="XfKxhjMmmsuSdTdvYUGt-50" target="XfKxhjMmmsuSdTdvYUGt-49" edge="1">
          <mxGeometry width="100" height="100" relative="1" as="geometry" />
        </mxCell>
        <mxCell id="XfKxhjMmmsuSdTdvYUGt-61" value="" style="html=1;jettySize=18;fontSize=11;strokeWidth=1.2;rounded=1;arcSize=0;edgeStyle=orthogonalEdgeStyle;startArrow=none;;endArrow=none;;exitX=0.9842265231456534;exitY=0.3750546020133649;exitPerimeter=1;entryX=1;entryY=0.5;entryPerimeter=1;" parent="1" source="XfKxhjMmmsuSdTdvYUGt-54" target="XfKxhjMmmsuSdTdvYUGt-29" edge="1">
          <mxGeometry width="100" height="100" relative="1" as="geometry" />
        </mxCell>
        <mxCell id="XfKxhjMmmsuSdTdvYUGt-62" value="" style="html=1;jettySize=18;fontSize=11;strokeWidth=1.2;rounded=1;arcSize=0;edgeStyle=orthogonalEdgeStyle;startArrow=none;;endArrow=none;;exitX=0;exitY=0.5;exitPerimeter=1;entryX=1;entryY=0.5;entryPerimeter=1;" parent="1" source="XfKxhjMmmsuSdTdvYUGt-49" target="XfKxhjMmmsuSdTdvYUGt-29" edge="1">
          <mxGeometry width="100" height="100" relative="1" as="geometry" />
        </mxCell>
        <mxCell id="XfKxhjMmmsuSdTdvYUGt-63" value="" style="html=1;jettySize=18;fontSize=11;strokeWidth=1.2;rounded=1;arcSize=0;edgeStyle=orthogonalEdgeStyle;startArrow=none;;endArrow=none;;exitX=0;exitY=0.5;exitPerimeter=1;entryX=1;entryY=0.5000000000000014;entryPerimeter=1;" parent="1" source="XfKxhjMmmsuSdTdvYUGt-53" target="XfKxhjMmmsuSdTdvYUGt-29" edge="1">
          <mxGeometry width="100" height="100" relative="1" as="geometry" />
        </mxCell>
        <mxCell id="XfKxhjMmmsuSdTdvYUGt-64" value="" style="html=1;jettySize=18;fontSize=11;strokeWidth=1.2;rounded=1;arcSize=0;edgeStyle=orthogonalEdgeStyle;startArrow=none;;endArrow=none;;exitX=0;exitY=0.5;exitPerimeter=1;entryX=1;entryY=0.5;entryPerimeter=1;" parent="1" source="XfKxhjMmmsuSdTdvYUGt-52" target="XfKxhjMmmsuSdTdvYUGt-29" edge="1">
          <mxGeometry width="100" height="100" relative="1" as="geometry" />
        </mxCell>
        <mxCell id="XfKxhjMmmsuSdTdvYUGt-66" value="" style="html=1;jettySize=18;fontSize=11;strokeWidth=1.2;rounded=1;arcSize=0;edgeStyle=orthogonalEdgeStyle;startArrow=none;;endArrow=none;;exitX=1;exitY=0.5;exitPerimeter=1;entryX=1;entryY=0.49701361529664895;entryPerimeter=1;" parent="1" source="XfKxhjMmmsuSdTdvYUGt-45" target="XfKxhjMmmsuSdTdvYUGt-29" edge="1">
          <mxGeometry width="100" height="100" relative="1" as="geometry" />
        </mxCell>
        <mxCell id="XfKxhjMmmsuSdTdvYUGt-68" value="" style="html=1;jettySize=18;fontSize=11;strokeWidth=1.2;rounded=1;arcSize=0;edgeStyle=orthogonalEdgeStyle;startArrow=none;;endArrow=none;;exitX=0;exitY=0.5;exitPerimeter=1;entryX=1;entryY=0.5;entryPerimeter=1;" parent="1" source="XfKxhjMmmsuSdTdvYUGt-46" target="XfKxhjMmmsuSdTdvYUGt-42" edge="1">
          <mxGeometry width="100" height="100" relative="1" as="geometry" />
        </mxCell>
        <mxCell id="XfKxhjMmmsuSdTdvYUGt-69" value="" style="html=1;jettySize=18;fontSize=11;strokeWidth=1.2;rounded=1;arcSize=0;edgeStyle=orthogonalEdgeStyle;startArrow=none;;endArrow=none;;exitX=0.5;exitY=1;exitPerimeter=1;entryX=1;entryY=0.5;entryPerimeter=1;" parent="1" source="XfKxhjMmmsuSdTdvYUGt-48" target="XfKxhjMmmsuSdTdvYUGt-42" edge="1">
          <mxGeometry width="100" height="100" relative="1" as="geometry" />
        </mxCell>
        <mxCell id="XfKxhjMmmsuSdTdvYUGt-70" value="" style="html=1;jettySize=18;fontSize=11;strokeWidth=1.2;rounded=1;arcSize=0;edgeStyle=orthogonalEdgeStyle;startArrow=none;;endArrow=none;;exitX=0.5;exitY=0;entryX=1;entryY=0.5;entryPerimeter=1;exitDx=0;exitDy=0;" parent="1" source="XfKxhjMmmsuSdTdvYUGt-165" target="XfKxhjMmmsuSdTdvYUGt-42" edge="1">
          <mxGeometry width="100" height="100" relative="1" as="geometry">
            <mxPoint x="1477" y="148" as="sourcePoint" />
          </mxGeometry>
        </mxCell>
        <mxCell id="XfKxhjMmmsuSdTdvYUGt-71" value="" style="html=1;jettySize=18;fontSize=11;strokeWidth=1.2;rounded=1;arcSize=0;edgeStyle=orthogonalEdgeStyle;startArrow=none;;endArrow=none;;exitX=0.5;exitY=1;exitPerimeter=1;entryX=1;entryY=0.5;entryPerimeter=1;" parent="1" source="XfKxhjMmmsuSdTdvYUGt-43" target="XfKxhjMmmsuSdTdvYUGt-42" edge="1">
          <mxGeometry width="100" height="100" relative="1" as="geometry" />
        </mxCell>
        <mxCell id="XfKxhjMmmsuSdTdvYUGt-72" value="" style="html=1;jettySize=18;fontSize=11;strokeWidth=1.2;rounded=1;arcSize=0;edgeStyle=orthogonalEdgeStyle;startArrow=none;;endArrow=none;;exitX=0.5;exitY=0;exitPerimeter=1;entryX=1;entryY=0.5;entryPerimeter=1;" parent="1" source="XfKxhjMmmsuSdTdvYUGt-47" target="XfKxhjMmmsuSdTdvYUGt-42" edge="1">
          <mxGeometry width="100" height="100" relative="1" as="geometry" />
        </mxCell>
        <mxCell id="XfKxhjMmmsuSdTdvYUGt-73" value="" style="html=1;jettySize=18;fontSize=11;strokeWidth=1.2;rounded=1;arcSize=0;edgeStyle=orthogonalEdgeStyle;startArrow=none;;endArrow=none;;exitX=1;exitY=0.5;exitPerimeter=1;" parent="1" source="XfKxhjMmmsuSdTdvYUGt-26" edge="1">
          <mxGeometry width="100" height="100" relative="1" as="geometry">
            <mxPoint x="221" y="156" as="targetPoint" />
          </mxGeometry>
        </mxCell>
        <mxCell id="XfKxhjMmmsuSdTdvYUGt-74" value="" style="html=1;jettySize=18;fontSize=11;strokeWidth=1.2;rounded=1;arcSize=0;edgeStyle=orthogonalEdgeStyle;startArrow=none;;endArrow=none;;exitX=0.5;exitY=0;exitPerimeter=1;entryX=0;entryY=0.5;entryPerimeter=1;" parent="1" source="XfKxhjMmmsuSdTdvYUGt-55" target="XfKxhjMmmsuSdTdvYUGt-27" edge="1">
          <mxGeometry width="100" height="100" relative="1" as="geometry" />
        </mxCell>
        <mxCell id="XfKxhjMmmsuSdTdvYUGt-75" value="" style="html=1;jettySize=18;fontSize=11;strokeWidth=1.2;rounded=1;arcSize=0;edgeStyle=orthogonalEdgeStyle;startArrow=none;;endArrow=none;;exitX=0.5;exitY=1;exitPerimeter=1;entryX=0.5;entryY=0.00683868595964519;entryPerimeter=1;" parent="1" source="XfKxhjMmmsuSdTdvYUGt-27" target="XfKxhjMmmsuSdTdvYUGt-76" edge="1">
          <mxGeometry width="100" height="100" relative="1" as="geometry">
            <Array as="points">
              <mxPoint x="276" y="180" />
            </Array>
          </mxGeometry>
        </mxCell>
        <mxCell id="XfKxhjMmmsuSdTdvYUGt-76" value="Hires" style="html=1;whiteSpace=wrap;rhombus;fontSize=11;fontColor=#666666;fontStyle=2;spacing=5;strokeColor=#fe5900;strokeOpacity=100;rounded=1;absoluteArcSize=1;arcSize=9.6;strokeWidth=2.4;" parent="1" vertex="1">
          <mxGeometry x="231" y="252" width="90" height="60" as="geometry" />
        </mxCell>
        <mxCell id="XfKxhjMmmsuSdTdvYUGt-77" value="" style="html=1;jettySize=18;fontSize=11;strokeWidth=1.2;rounded=1;arcSize=0;edgeStyle=orthogonalEdgeStyle;startArrow=none;;endArrow=none;;exitX=0.5;exitY=0.9931613140403548;exitPerimeter=1;entryX=0.5;entryY=0;entryPerimeter=1;" parent="1" source="XfKxhjMmmsuSdTdvYUGt-76" target="XfKxhjMmmsuSdTdvYUGt-78" edge="1">
          <mxGeometry width="100" height="100" relative="1" as="geometry" />
        </mxCell>
        <mxCell id="XfKxhjMmmsuSdTdvYUGt-95" style="edgeStyle=orthogonalEdgeStyle;rounded=0;orthogonalLoop=1;jettySize=auto;html=1;entryX=0.5;entryY=0;entryDx=0;entryDy=0;" parent="1" source="XfKxhjMmmsuSdTdvYUGt-78" target="XfKxhjMmmsuSdTdvYUGt-94" edge="1">
          <mxGeometry relative="1" as="geometry">
            <Array as="points">
              <mxPoint x="275" y="420" />
              <mxPoint x="275" y="420" />
            </Array>
          </mxGeometry>
        </mxCell>
        <mxCell id="XfKxhjMmmsuSdTdvYUGt-144" style="edgeStyle=orthogonalEdgeStyle;rounded=0;orthogonalLoop=1;jettySize=auto;html=1;entryX=0;entryY=0.5;entryDx=0;entryDy=0;" parent="1" source="XfKxhjMmmsuSdTdvYUGt-78" target="XfKxhjMmmsuSdTdvYUGt-141" edge="1">
          <mxGeometry relative="1" as="geometry">
            <Array as="points">
              <mxPoint x="276" y="490" />
            </Array>
          </mxGeometry>
        </mxCell>
        <mxCell id="XfKxhjMmmsuSdTdvYUGt-78" value="Staff" style="html=1;whiteSpace=wrap;;fontSize=11;fontColor=#ffffff;spacing=5;strokeOpacity=0;fillOpacity=100;rounded=1;absoluteArcSize=1;arcSize=9.6;fillColor=#ff9e56;strokeWidth=1.2;" parent="1" vertex="1">
          <mxGeometry x="222" y="348" width="108" height="48" as="geometry" />
        </mxCell>
        <mxCell id="XfKxhjMmmsuSdTdvYUGt-92" style="edgeStyle=orthogonalEdgeStyle;rounded=0;orthogonalLoop=1;jettySize=auto;html=1;" parent="1" source="XfKxhjMmmsuSdTdvYUGt-79" target="XfKxhjMmmsuSdTdvYUGt-78" edge="1">
          <mxGeometry relative="1" as="geometry" />
        </mxCell>
        <mxCell id="XfKxhjMmmsuSdTdvYUGt-79" value="HiringDate" style="html=1;whiteSpace=wrap;ellipse;fontSize=11;fontColor=#ffffff;fontStyle=2;spacing=5;strokeOpacity=0;fillOpacity=100;rounded=1;absoluteArcSize=1;arcSize=9.6;fillColor=#ff9e56;strokeWidth=1.2;" parent="1" vertex="1">
          <mxGeometry x="60" y="348" width="108" height="48" as="geometry" />
        </mxCell>
        <mxCell id="XfKxhjMmmsuSdTdvYUGt-124" style="edgeStyle=orthogonalEdgeStyle;rounded=0;orthogonalLoop=1;jettySize=auto;html=1;entryX=0.5;entryY=1;entryDx=0;entryDy=0;" parent="1" source="XfKxhjMmmsuSdTdvYUGt-81" target="XfKxhjMmmsuSdTdvYUGt-83" edge="1">
          <mxGeometry relative="1" as="geometry" />
        </mxCell>
        <mxCell id="XfKxhjMmmsuSdTdvYUGt-81" value="First Name" style="html=1;whiteSpace=wrap;ellipse;fontSize=11;fontColor=#ffffff;fontStyle=2;spacing=5;strokeOpacity=0;fillOpacity=100;rounded=1;absoluteArcSize=1;arcSize=9.6;fillColor=#ff9e56;strokeWidth=1.2;" parent="1" vertex="1">
          <mxGeometry y="502" width="108" height="48" as="geometry" />
        </mxCell>
        <mxCell id="XfKxhjMmmsuSdTdvYUGt-89" style="edgeStyle=orthogonalEdgeStyle;rounded=0;orthogonalLoop=1;jettySize=auto;html=1;exitX=1;exitY=0.5;exitDx=0;exitDy=0;entryX=0;entryY=0.5;entryDx=0;entryDy=0;" parent="1" source="XfKxhjMmmsuSdTdvYUGt-82" target="XfKxhjMmmsuSdTdvYUGt-78" edge="1">
          <mxGeometry relative="1" as="geometry" />
        </mxCell>
        <mxCell id="XfKxhjMmmsuSdTdvYUGt-82" value="StaffId" style="html=1;whiteSpace=wrap;ellipse;fontSize=11;fontColor=#ffffff;fontStyle=6;spacing=5;strokeOpacity=0;fillOpacity=100;rounded=1;absoluteArcSize=1;arcSize=9.6;fillColor=#ff9e56;strokeWidth=1.2;" parent="1" vertex="1">
          <mxGeometry x="60" y="276" width="108" height="48" as="geometry" />
        </mxCell>
        <mxCell id="XfKxhjMmmsuSdTdvYUGt-91" style="edgeStyle=orthogonalEdgeStyle;rounded=0;orthogonalLoop=1;jettySize=auto;html=1;entryX=0;entryY=0.5;entryDx=0;entryDy=0;" parent="1" source="XfKxhjMmmsuSdTdvYUGt-83" target="XfKxhjMmmsuSdTdvYUGt-78" edge="1">
          <mxGeometry relative="1" as="geometry" />
        </mxCell>
        <mxCell id="XfKxhjMmmsuSdTdvYUGt-83" value="Name" style="html=1;whiteSpace=wrap;ellipse;fontSize=11;fontColor=#ffffff;fontStyle=2;spacing=5;strokeOpacity=0;fillOpacity=100;rounded=1;absoluteArcSize=1;arcSize=9.6;fillColor=#ff9e56;strokeWidth=1.2;" parent="1" vertex="1">
          <mxGeometry x="60" y="408" width="108" height="48" as="geometry" />
        </mxCell>
        <mxCell id="XfKxhjMmmsuSdTdvYUGt-116" style="edgeStyle=orthogonalEdgeStyle;rounded=0;orthogonalLoop=1;jettySize=auto;html=1;entryX=0.5;entryY=0;entryDx=0;entryDy=0;" parent="1" source="XfKxhjMmmsuSdTdvYUGt-94" target="XfKxhjMmmsuSdTdvYUGt-96" edge="1">
          <mxGeometry relative="1" as="geometry" />
        </mxCell>
        <mxCell id="XfKxhjMmmsuSdTdvYUGt-94" value="Gets Paid via" style="html=1;whiteSpace=wrap;rhombus;fontSize=11;fontColor=#666666;fontStyle=2;spacing=5;strokeColor=#fe5900;strokeOpacity=100;rounded=1;absoluteArcSize=1;arcSize=9.6;strokeWidth=2.4;" parent="1" vertex="1">
          <mxGeometry x="230" y="560" width="90" height="80" as="geometry" />
        </mxCell>
        <mxCell id="XfKxhjMmmsuSdTdvYUGt-96" value="&amp;nbsp;Staff Financial Dept." style="html=1;whiteSpace=wrap;;fontSize=11;fontColor=#ffffff;spacing=5;strokeOpacity=0;fillOpacity=100;rounded=1;absoluteArcSize=1;arcSize=9.6;fillColor=#ff9e56;strokeWidth=1.2;" parent="1" vertex="1">
          <mxGeometry x="221" y="710" width="108" height="48" as="geometry" />
        </mxCell>
        <mxCell id="XfKxhjMmmsuSdTdvYUGt-138" style="edgeStyle=orthogonalEdgeStyle;rounded=0;orthogonalLoop=1;jettySize=auto;html=1;entryX=0.5;entryY=1;entryDx=0;entryDy=0;" parent="1" source="XfKxhjMmmsuSdTdvYUGt-97" target="XfKxhjMmmsuSdTdvYUGt-96" edge="1">
          <mxGeometry relative="1" as="geometry" />
        </mxCell>
        <mxCell id="XfKxhjMmmsuSdTdvYUGt-97" value="StaffID*" style="html=1;whiteSpace=wrap;ellipse;fontSize=11;fontColor=#ffffff;fontStyle=2;spacing=5;strokeOpacity=0;fillOpacity=100;rounded=1;absoluteArcSize=1;arcSize=9.6;fillColor=#ff9e56;strokeWidth=1.2;" parent="1" vertex="1">
          <mxGeometry x="84" y="772" width="108" height="48" as="geometry" />
        </mxCell>
        <mxCell id="XfKxhjMmmsuSdTdvYUGt-129" style="edgeStyle=orthogonalEdgeStyle;rounded=0;orthogonalLoop=1;jettySize=auto;html=1;entryX=0.5;entryY=1;entryDx=0;entryDy=0;" parent="1" source="XfKxhjMmmsuSdTdvYUGt-99" target="XfKxhjMmmsuSdTdvYUGt-96" edge="1">
          <mxGeometry relative="1" as="geometry" />
        </mxCell>
        <mxCell id="XfKxhjMmmsuSdTdvYUGt-99" value="WorkingYears" style="html=1;whiteSpace=wrap;ellipse;fontSize=11;fontColor=#ffffff;fontStyle=2;spacing=5;strokeOpacity=0;fillOpacity=100;rounded=1;absoluteArcSize=1;arcSize=9.6;fillColor=#ff9e56;strokeWidth=1.2;" parent="1" vertex="1">
          <mxGeometry x="84" y="850" width="108" height="48" as="geometry" />
        </mxCell>
        <mxCell id="XfKxhjMmmsuSdTdvYUGt-132" style="edgeStyle=orthogonalEdgeStyle;rounded=0;orthogonalLoop=1;jettySize=auto;html=1;entryX=1;entryY=0.5;entryDx=0;entryDy=0;" parent="1" source="XfKxhjMmmsuSdTdvYUGt-100" target="XfKxhjMmmsuSdTdvYUGt-108" edge="1">
          <mxGeometry relative="1" as="geometry">
            <Array as="points">
              <mxPoint x="455" y="920" />
              <mxPoint x="384" y="920" />
              <mxPoint x="384" y="874" />
            </Array>
          </mxGeometry>
        </mxCell>
        <mxCell id="XfKxhjMmmsuSdTdvYUGt-100" value="Last Name" style="html=1;whiteSpace=wrap;ellipse;fontSize=11;fontColor=#ffffff;fontStyle=2;spacing=5;strokeOpacity=0;fillOpacity=100;rounded=1;absoluteArcSize=1;arcSize=9.6;fillColor=#ff9e56;strokeWidth=1.2;" parent="1" vertex="1">
          <mxGeometry x="400" y="950" width="110" height="48" as="geometry" />
        </mxCell>
        <mxCell id="XfKxhjMmmsuSdTdvYUGt-130" style="edgeStyle=orthogonalEdgeStyle;rounded=0;orthogonalLoop=1;jettySize=auto;html=1;entryX=0.5;entryY=1;entryDx=0;entryDy=0;" parent="1" source="XfKxhjMmmsuSdTdvYUGt-101" target="XfKxhjMmmsuSdTdvYUGt-96" edge="1">
          <mxGeometry relative="1" as="geometry" />
        </mxCell>
        <mxCell id="XfKxhjMmmsuSdTdvYUGt-101" value="Department" style="html=1;whiteSpace=wrap;ellipse;fontSize=11;fontColor=#ffffff;fontStyle=2;spacing=5;strokeOpacity=0;fillOpacity=100;rounded=1;absoluteArcSize=1;arcSize=9.6;fillColor=#ff9e56;strokeWidth=1.2;" parent="1" vertex="1">
          <mxGeometry x="84" y="920" width="108" height="48" as="geometry" />
        </mxCell>
        <mxCell id="XfKxhjMmmsuSdTdvYUGt-135" style="edgeStyle=orthogonalEdgeStyle;rounded=0;orthogonalLoop=1;jettySize=auto;html=1;exitX=0;exitY=0.5;exitDx=0;exitDy=0;entryX=0.5;entryY=1;entryDx=0;entryDy=0;" parent="1" source="XfKxhjMmmsuSdTdvYUGt-108" target="XfKxhjMmmsuSdTdvYUGt-96" edge="1">
          <mxGeometry relative="1" as="geometry" />
        </mxCell>
        <mxCell id="XfKxhjMmmsuSdTdvYUGt-108" value="Name*" style="html=1;whiteSpace=wrap;ellipse;fontSize=11;fontColor=#ffffff;fontStyle=2;spacing=5;strokeOpacity=0;fillOpacity=100;rounded=1;absoluteArcSize=1;arcSize=9.6;fillColor=#ff9e56;strokeWidth=1.2;" parent="1" vertex="1">
          <mxGeometry x="330" y="850" width="108" height="48" as="geometry" />
        </mxCell>
        <mxCell id="XfKxhjMmmsuSdTdvYUGt-111" style="edgeStyle=orthogonalEdgeStyle;rounded=0;orthogonalLoop=1;jettySize=auto;html=1;entryX=0.5;entryY=1;entryDx=0;entryDy=0;" parent="1" source="XfKxhjMmmsuSdTdvYUGt-109" target="XfKxhjMmmsuSdTdvYUGt-47" edge="1">
          <mxGeometry relative="1" as="geometry" />
        </mxCell>
        <mxCell id="XfKxhjMmmsuSdTdvYUGt-109" value="First Name" style="html=1;whiteSpace=wrap;ellipse;fontSize=11;fontColor=#ffffff;fontStyle=2;spacing=5;strokeOpacity=0;fillOpacity=100;rounded=1;absoluteArcSize=1;arcSize=9.6;fillColor=#ff9e56;strokeWidth=1.2;" parent="1" vertex="1">
          <mxGeometry x="1156" y="192" width="108" height="48" as="geometry" />
        </mxCell>
        <mxCell id="XfKxhjMmmsuSdTdvYUGt-112" style="edgeStyle=orthogonalEdgeStyle;rounded=0;orthogonalLoop=1;jettySize=auto;html=1;entryX=0.5;entryY=1;entryDx=0;entryDy=0;" parent="1" source="XfKxhjMmmsuSdTdvYUGt-110" target="XfKxhjMmmsuSdTdvYUGt-47" edge="1">
          <mxGeometry relative="1" as="geometry" />
        </mxCell>
        <mxCell id="XfKxhjMmmsuSdTdvYUGt-110" value="Last Name" style="html=1;whiteSpace=wrap;ellipse;fontSize=11;fontColor=#ffffff;fontStyle=2;spacing=5;strokeOpacity=0;fillOpacity=100;rounded=1;absoluteArcSize=1;arcSize=9.6;fillColor=#ff9e56;strokeWidth=1.2;" parent="1" vertex="1">
          <mxGeometry x="1156" y="254" width="108" height="48" as="geometry" />
        </mxCell>
        <mxCell id="XfKxhjMmmsuSdTdvYUGt-122" style="edgeStyle=orthogonalEdgeStyle;rounded=0;orthogonalLoop=1;jettySize=auto;html=1;entryX=1;entryY=0.5;entryDx=0;entryDy=0;" parent="1" source="XfKxhjMmmsuSdTdvYUGt-121" target="XfKxhjMmmsuSdTdvYUGt-78" edge="1">
          <mxGeometry relative="1" as="geometry" />
        </mxCell>
        <mxCell id="XfKxhjMmmsuSdTdvYUGt-121" value="Designation" style="html=1;whiteSpace=wrap;ellipse;fontSize=11;fontColor=#ffffff;fontStyle=2;spacing=5;strokeOpacity=0;fillOpacity=100;rounded=1;absoluteArcSize=1;arcSize=9.6;fillColor=#ff9e56;strokeWidth=1.2;" parent="1" vertex="1">
          <mxGeometry x="372" y="276" width="108" height="48" as="geometry" />
        </mxCell>
        <mxCell id="XfKxhjMmmsuSdTdvYUGt-125" style="edgeStyle=orthogonalEdgeStyle;rounded=0;orthogonalLoop=1;jettySize=auto;html=1;" parent="1" source="XfKxhjMmmsuSdTdvYUGt-123" target="XfKxhjMmmsuSdTdvYUGt-83" edge="1">
          <mxGeometry relative="1" as="geometry" />
        </mxCell>
        <mxCell id="XfKxhjMmmsuSdTdvYUGt-123" value="Last Name" style="html=1;whiteSpace=wrap;ellipse;fontSize=11;fontColor=#ffffff;fontStyle=2;spacing=5;strokeOpacity=0;fillOpacity=100;rounded=1;absoluteArcSize=1;arcSize=9.6;fillColor=#ff9e56;strokeWidth=1.2;" parent="1" vertex="1">
          <mxGeometry x="114" y="502" width="108" height="48" as="geometry" />
        </mxCell>
        <mxCell id="XfKxhjMmmsuSdTdvYUGt-128" style="edgeStyle=orthogonalEdgeStyle;rounded=0;orthogonalLoop=1;jettySize=auto;html=1;" parent="1" source="XfKxhjMmmsuSdTdvYUGt-127" target="XfKxhjMmmsuSdTdvYUGt-78" edge="1">
          <mxGeometry relative="1" as="geometry" />
        </mxCell>
        <mxCell id="XfKxhjMmmsuSdTdvYUGt-127" value="ExiringDate" style="html=1;whiteSpace=wrap;ellipse;fontSize=11;fontColor=#ffffff;fontStyle=2;spacing=5;strokeOpacity=0;fillOpacity=100;rounded=1;absoluteArcSize=1;arcSize=9.6;fillColor=#ff9e56;strokeWidth=1.2;" parent="1" vertex="1">
          <mxGeometry x="366" y="348" width="108" height="48" as="geometry" />
        </mxCell>
        <mxCell id="XfKxhjMmmsuSdTdvYUGt-134" style="edgeStyle=orthogonalEdgeStyle;rounded=0;orthogonalLoop=1;jettySize=auto;html=1;entryX=0.5;entryY=1;entryDx=0;entryDy=0;" parent="1" source="XfKxhjMmmsuSdTdvYUGt-133" target="XfKxhjMmmsuSdTdvYUGt-108" edge="1">
          <mxGeometry relative="1" as="geometry">
            <Array as="points">
              <mxPoint x="335" y="920" />
              <mxPoint x="384" y="920" />
            </Array>
          </mxGeometry>
        </mxCell>
        <mxCell id="XfKxhjMmmsuSdTdvYUGt-133" value="First Name" style="html=1;whiteSpace=wrap;ellipse;fontSize=11;fontColor=#ffffff;fontStyle=2;spacing=5;strokeOpacity=0;fillOpacity=100;rounded=1;absoluteArcSize=1;arcSize=9.6;fillColor=#ff9e56;strokeWidth=1.2;" parent="1" vertex="1">
          <mxGeometry x="280" y="950" width="110" height="48" as="geometry" />
        </mxCell>
        <mxCell id="XfKxhjMmmsuSdTdvYUGt-137" style="edgeStyle=orthogonalEdgeStyle;rounded=0;orthogonalLoop=1;jettySize=auto;html=1;entryX=0.5;entryY=1;entryDx=0;entryDy=0;" parent="1" source="XfKxhjMmmsuSdTdvYUGt-136" target="XfKxhjMmmsuSdTdvYUGt-96" edge="1">
          <mxGeometry relative="1" as="geometry" />
        </mxCell>
        <mxCell id="XfKxhjMmmsuSdTdvYUGt-136" value="Salary" style="html=1;whiteSpace=wrap;ellipse;fontSize=11;fontColor=#ffffff;fontStyle=2;spacing=5;strokeOpacity=0;fillOpacity=100;rounded=1;absoluteArcSize=1;arcSize=9.6;fillColor=#ff9e56;strokeWidth=1.2;" parent="1" vertex="1">
          <mxGeometry x="340" y="772" width="110" height="48" as="geometry" />
        </mxCell>
        <mxCell id="XfKxhjMmmsuSdTdvYUGt-148" style="edgeStyle=orthogonalEdgeStyle;rounded=0;orthogonalLoop=1;jettySize=auto;html=1;" parent="1" source="XfKxhjMmmsuSdTdvYUGt-140" target="XfKxhjMmmsuSdTdvYUGt-145" edge="1">
          <mxGeometry relative="1" as="geometry">
            <Array as="points">
              <mxPoint x="640" y="420" />
              <mxPoint x="640" y="748" />
            </Array>
          </mxGeometry>
        </mxCell>
        <mxCell id="XfKxhjMmmsuSdTdvYUGt-140" value="taught by&amp;nbsp;" style="html=1;whiteSpace=wrap;rhombus;fontSize=11;fontColor=#666666;spacing=5;strokeColor=#fe5900;strokeOpacity=100;rounded=1;absoluteArcSize=1;arcSize=9.6;strokeWidth=2.4;" parent="1" vertex="1">
          <mxGeometry x="537" y="390" width="90" height="60" as="geometry" />
        </mxCell>
        <mxCell id="XfKxhjMmmsuSdTdvYUGt-149" style="edgeStyle=orthogonalEdgeStyle;rounded=0;orthogonalLoop=1;jettySize=auto;html=1;entryX=0;entryY=0.5;entryDx=0;entryDy=0;" parent="1" source="XfKxhjMmmsuSdTdvYUGt-141" target="XfKxhjMmmsuSdTdvYUGt-145" edge="1">
          <mxGeometry relative="1" as="geometry">
            <Array as="points">
              <mxPoint x="640" y="490" />
              <mxPoint x="640" y="748" />
            </Array>
          </mxGeometry>
        </mxCell>
        <mxCell id="XfKxhjMmmsuSdTdvYUGt-141" value="have" style="html=1;whiteSpace=wrap;rhombus;fontSize=11;fontColor=#666666;spacing=5;strokeColor=#fe5900;strokeOpacity=100;rounded=1;absoluteArcSize=1;arcSize=9.6;strokeWidth=2.4;" parent="1" vertex="1">
          <mxGeometry x="410" y="460" width="90" height="60" as="geometry" />
        </mxCell>
        <mxCell id="C2otGo-5uAhBFfljH4TV-29" style="edgeStyle=orthogonalEdgeStyle;rounded=0;orthogonalLoop=1;jettySize=auto;html=1;entryX=0.5;entryY=1;entryDx=0;entryDy=0;" parent="1" source="XfKxhjMmmsuSdTdvYUGt-145" target="C2otGo-5uAhBFfljH4TV-3" edge="1">
          <mxGeometry relative="1" as="geometry" />
        </mxCell>
        <mxCell id="XfKxhjMmmsuSdTdvYUGt-145" value="Lecturer" style="html=1;whiteSpace=wrap;;fontSize=11;fontColor=#ffffff;spacing=5;strokeOpacity=0;fillOpacity=100;rounded=1;absoluteArcSize=1;arcSize=9.6;fillColor=#ff9e56;strokeWidth=1.2;" parent="1" vertex="1">
          <mxGeometry x="761" y="724" width="108" height="48" as="geometry" />
        </mxCell>
        <mxCell id="XfKxhjMmmsuSdTdvYUGt-159" style="edgeStyle=orthogonalEdgeStyle;rounded=0;orthogonalLoop=1;jettySize=auto;html=1;entryX=0.5;entryY=1;entryDx=0;entryDy=0;" parent="1" source="XfKxhjMmmsuSdTdvYUGt-150" target="XfKxhjMmmsuSdTdvYUGt-145" edge="1">
          <mxGeometry relative="1" as="geometry" />
        </mxCell>
        <mxCell id="XfKxhjMmmsuSdTdvYUGt-150" value="Subject" style="html=1;whiteSpace=wrap;ellipse;fontSize=11;fontColor=#ffffff;fontStyle=2;spacing=5;strokeOpacity=0;fillOpacity=100;rounded=1;absoluteArcSize=1;arcSize=9.6;fillColor=#ff9e56;strokeWidth=1.2;" parent="1" vertex="1">
          <mxGeometry x="610" y="806" width="110" height="48" as="geometry" />
        </mxCell>
        <mxCell id="XfKxhjMmmsuSdTdvYUGt-160" style="edgeStyle=orthogonalEdgeStyle;rounded=0;orthogonalLoop=1;jettySize=auto;html=1;entryX=0.5;entryY=1;entryDx=0;entryDy=0;" parent="1" source="XfKxhjMmmsuSdTdvYUGt-151" target="XfKxhjMmmsuSdTdvYUGt-145" edge="1">
          <mxGeometry relative="1" as="geometry" />
        </mxCell>
        <mxCell id="XfKxhjMmmsuSdTdvYUGt-151" value="Name*" style="html=1;whiteSpace=wrap;ellipse;fontSize=11;fontColor=#ffffff;fontStyle=2;spacing=5;strokeOpacity=0;fillOpacity=100;rounded=1;absoluteArcSize=1;arcSize=9.6;fillColor=#ff9e56;strokeWidth=1.2;" parent="1" vertex="1">
          <mxGeometry x="916" y="806" width="110" height="48" as="geometry" />
        </mxCell>
        <mxCell id="XfKxhjMmmsuSdTdvYUGt-163" style="edgeStyle=orthogonalEdgeStyle;rounded=0;orthogonalLoop=1;jettySize=auto;html=1;entryX=1;entryY=0.5;entryDx=0;entryDy=0;" parent="1" source="XfKxhjMmmsuSdTdvYUGt-152" target="XfKxhjMmmsuSdTdvYUGt-151" edge="1">
          <mxGeometry relative="1" as="geometry" />
        </mxCell>
        <mxCell id="XfKxhjMmmsuSdTdvYUGt-152" value="Last Name" style="html=1;whiteSpace=wrap;ellipse;fontSize=11;fontColor=#ffffff;fontStyle=2;spacing=5;strokeOpacity=0;fillOpacity=100;rounded=1;absoluteArcSize=1;arcSize=9.6;fillColor=#ff9e56;strokeWidth=1.2;" parent="1" vertex="1">
          <mxGeometry x="1077" y="774" width="110" height="48" as="geometry" />
        </mxCell>
        <mxCell id="XfKxhjMmmsuSdTdvYUGt-158" style="edgeStyle=orthogonalEdgeStyle;rounded=0;orthogonalLoop=1;jettySize=auto;html=1;entryX=0.5;entryY=1;entryDx=0;entryDy=0;" parent="1" source="XfKxhjMmmsuSdTdvYUGt-153" target="XfKxhjMmmsuSdTdvYUGt-145" edge="1">
          <mxGeometry relative="1" as="geometry" />
        </mxCell>
        <mxCell id="XfKxhjMmmsuSdTdvYUGt-153" value="Department" style="html=1;whiteSpace=wrap;ellipse;fontSize=11;fontColor=#ffffff;fontStyle=2;spacing=5;strokeOpacity=0;fillOpacity=100;rounded=1;absoluteArcSize=1;arcSize=9.6;fillColor=#ff9e56;strokeWidth=1.2;" parent="1" vertex="1">
          <mxGeometry x="610" y="892" width="110" height="48" as="geometry" />
        </mxCell>
        <mxCell id="XfKxhjMmmsuSdTdvYUGt-164" style="edgeStyle=orthogonalEdgeStyle;rounded=0;orthogonalLoop=1;jettySize=auto;html=1;entryX=1;entryY=0.5;entryDx=0;entryDy=0;" parent="1" source="XfKxhjMmmsuSdTdvYUGt-154" target="XfKxhjMmmsuSdTdvYUGt-151" edge="1">
          <mxGeometry relative="1" as="geometry" />
        </mxCell>
        <mxCell id="XfKxhjMmmsuSdTdvYUGt-154" value="First Name" style="html=1;whiteSpace=wrap;ellipse;fontSize=11;fontColor=#ffffff;fontStyle=2;spacing=5;strokeOpacity=0;fillOpacity=100;rounded=1;absoluteArcSize=1;arcSize=9.6;fillColor=#ff9e56;strokeWidth=1.2;" parent="1" vertex="1">
          <mxGeometry x="1077" y="854" width="110" height="48" as="geometry" />
        </mxCell>
        <mxCell id="XfKxhjMmmsuSdTdvYUGt-162" style="edgeStyle=orthogonalEdgeStyle;rounded=0;orthogonalLoop=1;jettySize=auto;html=1;entryX=0.5;entryY=1;entryDx=0;entryDy=0;" parent="1" source="XfKxhjMmmsuSdTdvYUGt-155" target="XfKxhjMmmsuSdTdvYUGt-145" edge="1">
          <mxGeometry relative="1" as="geometry">
            <Array as="points">
              <mxPoint x="815" y="870" />
              <mxPoint x="815" y="870" />
            </Array>
          </mxGeometry>
        </mxCell>
        <mxCell id="XfKxhjMmmsuSdTdvYUGt-155" value="LecID*" style="html=1;whiteSpace=wrap;ellipse;fontSize=11;fontColor=#ffffff;fontStyle=2;spacing=5;strokeOpacity=0;fillOpacity=100;rounded=1;absoluteArcSize=1;arcSize=9.6;fillColor=#ff9e56;strokeWidth=1.2;" parent="1" vertex="1">
          <mxGeometry x="760" y="970" width="110" height="48" as="geometry" />
        </mxCell>
        <mxCell id="XfKxhjMmmsuSdTdvYUGt-161" style="edgeStyle=orthogonalEdgeStyle;rounded=0;orthogonalLoop=1;jettySize=auto;html=1;entryX=0.5;entryY=1;entryDx=0;entryDy=0;" parent="1" source="XfKxhjMmmsuSdTdvYUGt-156" target="XfKxhjMmmsuSdTdvYUGt-145" edge="1">
          <mxGeometry relative="1" as="geometry">
            <Array as="points">
              <mxPoint x="815" y="916" />
            </Array>
            <mxPoint x="800" y="790" as="targetPoint" />
          </mxGeometry>
        </mxCell>
        <mxCell id="XfKxhjMmmsuSdTdvYUGt-156" value="&lt;u&gt;Email_ID&lt;/u&gt;" style="html=1;whiteSpace=wrap;ellipse;fontSize=11;fontColor=#ffffff;fontStyle=2;spacing=5;strokeOpacity=0;fillOpacity=100;rounded=1;absoluteArcSize=1;arcSize=9.6;fillColor=#ff9e56;strokeWidth=1.2;" parent="1" vertex="1">
          <mxGeometry x="910" y="892" width="110" height="48" as="geometry" />
        </mxCell>
        <mxCell id="XfKxhjMmmsuSdTdvYUGt-165" value="TotalFees" style="html=1;whiteSpace=wrap;ellipse;fontSize=11;fontColor=#ffffff;fontStyle=2;spacing=5;strokeOpacity=0;fillOpacity=100;rounded=1;absoluteArcSize=1;arcSize=9.6;fillColor=#ff9e56;strokeWidth=1.2;" parent="1" vertex="1">
          <mxGeometry x="1423" y="166" width="108" height="48" as="geometry" />
        </mxCell>
        <mxCell id="C2otGo-5uAhBFfljH4TV-30" style="edgeStyle=orthogonalEdgeStyle;rounded=0;orthogonalLoop=1;jettySize=auto;html=1;entryX=0;entryY=0.5;entryDx=0;entryDy=0;" parent="1" source="C2otGo-5uAhBFfljH4TV-3" target="C2otGo-5uAhBFfljH4TV-5" edge="1">
          <mxGeometry relative="1" as="geometry" />
        </mxCell>
        <mxCell id="C2otGo-5uAhBFfljH4TV-3" value="issues books from" style="html=1;whiteSpace=wrap;rhombus;fontSize=11;fontColor=#666666;spacing=5;strokeColor=#fe5900;strokeOpacity=100;rounded=1;absoluteArcSize=1;arcSize=9.6;strokeWidth=2.4;" parent="1" vertex="1">
          <mxGeometry x="770" y="408" width="90" height="60" as="geometry" />
        </mxCell>
        <mxCell id="C2otGo-5uAhBFfljH4TV-5" value="Library" style="html=1;whiteSpace=wrap;;fontSize=11;fontColor=#ffffff;spacing=5;strokeOpacity=0;fillOpacity=100;rounded=1;absoluteArcSize=1;arcSize=9.6;fillColor=#ff9e56;strokeWidth=1.2;" parent="1" vertex="1">
          <mxGeometry x="1020" y="414" width="108" height="48" as="geometry" />
        </mxCell>
        <mxCell id="C2otGo-5uAhBFfljH4TV-24" style="edgeStyle=orthogonalEdgeStyle;rounded=0;orthogonalLoop=1;jettySize=auto;html=1;entryX=1;entryY=0.5;entryDx=0;entryDy=0;exitX=0.5;exitY=0;exitDx=0;exitDy=0;" parent="1" source="C2otGo-5uAhBFfljH4TV-7" target="C2otGo-5uAhBFfljH4TV-5" edge="1">
          <mxGeometry relative="1" as="geometry" />
        </mxCell>
        <mxCell id="C2otGo-5uAhBFfljH4TV-7" value="&lt;u&gt;BookName&lt;/u&gt;" style="html=1;whiteSpace=wrap;ellipse;fontSize=11;fontColor=#ffffff;fontStyle=2;spacing=5;strokeOpacity=0;fillOpacity=100;rounded=1;absoluteArcSize=1;arcSize=9.6;fillColor=#ff9e56;strokeWidth=1.2;" parent="1" vertex="1">
          <mxGeometry x="1156" y="490" width="110" height="48" as="geometry" />
        </mxCell>
        <mxCell id="C2otGo-5uAhBFfljH4TV-31" style="edgeStyle=orthogonalEdgeStyle;rounded=0;orthogonalLoop=1;jettySize=auto;html=1;entryX=1;entryY=0.5;entryDx=0;entryDy=0;" parent="1" source="C2otGo-5uAhBFfljH4TV-9" target="C2otGo-5uAhBFfljH4TV-5" edge="1">
          <mxGeometry relative="1" as="geometry">
            <Array as="points">
              <mxPoint x="1211" y="438" />
            </Array>
          </mxGeometry>
        </mxCell>
        <mxCell id="C2otGo-5uAhBFfljH4TV-9" value="issue id*" style="html=1;whiteSpace=wrap;ellipse;fontSize=11;fontColor=#ffffff;fontStyle=2;spacing=5;strokeOpacity=0;fillOpacity=100;rounded=1;absoluteArcSize=1;arcSize=9.6;fillColor=#ff9e56;strokeWidth=1.2;" parent="1" vertex="1">
          <mxGeometry x="1156" y="370" width="110" height="48" as="geometry" />
        </mxCell>
        <mxCell id="C2otGo-5uAhBFfljH4TV-21" style="edgeStyle=orthogonalEdgeStyle;rounded=0;orthogonalLoop=1;jettySize=auto;html=1;" parent="1" source="C2otGo-5uAhBFfljH4TV-13" target="C2otGo-5uAhBFfljH4TV-5" edge="1">
          <mxGeometry relative="1" as="geometry" />
        </mxCell>
        <mxCell id="C2otGo-5uAhBFfljH4TV-13" value="BookAuthor" style="html=1;whiteSpace=wrap;ellipse;fontSize=11;fontColor=#ffffff;fontStyle=2;spacing=5;strokeOpacity=0;fillOpacity=100;rounded=1;absoluteArcSize=1;arcSize=9.6;fillColor=#ff9e56;strokeWidth=1.2;" parent="1" vertex="1">
          <mxGeometry x="1390" y="414" width="110" height="48" as="geometry" />
        </mxCell>
        <mxCell id="C2otGo-5uAhBFfljH4TV-25" style="edgeStyle=orthogonalEdgeStyle;rounded=0;orthogonalLoop=1;jettySize=auto;html=1;entryX=1;entryY=0.5;entryDx=0;entryDy=0;exitX=0.5;exitY=0;exitDx=0;exitDy=0;" parent="1" source="C2otGo-5uAhBFfljH4TV-17" target="C2otGo-5uAhBFfljH4TV-5" edge="1">
          <mxGeometry relative="1" as="geometry" />
        </mxCell>
        <mxCell id="C2otGo-5uAhBFfljH4TV-17" value="Category" style="html=1;whiteSpace=wrap;ellipse;fontSize=11;fontColor=#ffffff;fontStyle=2;spacing=5;strokeOpacity=0;fillOpacity=100;rounded=1;absoluteArcSize=1;arcSize=9.6;fillColor=#ff9e56;strokeWidth=1.2;" parent="1" vertex="1">
          <mxGeometry x="1280" y="490" width="110" height="48" as="geometry" />
        </mxCell>
        <mxCell id="C2otGo-5uAhBFfljH4TV-26" style="edgeStyle=orthogonalEdgeStyle;rounded=0;orthogonalLoop=1;jettySize=auto;html=1;exitX=0.5;exitY=1;exitDx=0;exitDy=0;" parent="1" source="C2otGo-5uAhBFfljH4TV-19" target="C2otGo-5uAhBFfljH4TV-5" edge="1">
          <mxGeometry relative="1" as="geometry" />
        </mxCell>
        <mxCell id="C2otGo-5uAhBFfljH4TV-19" value="Issue_date" style="html=1;whiteSpace=wrap;ellipse;fontSize=11;fontColor=#ffffff;fontStyle=2;spacing=5;strokeOpacity=0;fillOpacity=100;rounded=1;absoluteArcSize=1;arcSize=9.6;fillColor=#ff9e56;strokeWidth=1.2;" parent="1" vertex="1">
          <mxGeometry x="1280" y="370" width="110" height="48" as="geometry" />
        </mxCell>
        <mxCell id="X7TEmBT8_0_ICSar0OiC-1" value="Lecture" style="html=1;whiteSpace=wrap;;fontSize=11;fontColor=#ffffff;spacing=5;strokeOpacity=0;fillOpacity=100;rounded=1;absoluteArcSize=1;arcSize=9.6;fillColor=#ff9e56;strokeWidth=1.2;" vertex="1" parent="1">
          <mxGeometry x="1026" y="624" width="108" height="48" as="geometry" />
        </mxCell>
        <mxCell id="X7TEmBT8_0_ICSar0OiC-4" style="edgeStyle=orthogonalEdgeStyle;rounded=0;orthogonalLoop=1;jettySize=auto;html=1;entryX=1;entryY=0.5;entryDx=0;entryDy=0;" edge="1" parent="1" source="X7TEmBT8_0_ICSar0OiC-5" target="X7TEmBT8_0_ICSar0OiC-1">
          <mxGeometry relative="1" as="geometry">
            <Array as="points">
              <mxPoint x="1217" y="648" />
            </Array>
          </mxGeometry>
        </mxCell>
        <mxCell id="X7TEmBT8_0_ICSar0OiC-5" value="Subject" style="html=1;whiteSpace=wrap;ellipse;fontSize=11;fontColor=#ffffff;fontStyle=2;spacing=5;strokeOpacity=0;fillOpacity=100;rounded=1;absoluteArcSize=1;arcSize=9.6;fillColor=#ff9e56;strokeWidth=1.2;" vertex="1" parent="1">
          <mxGeometry x="1162" y="580" width="110" height="48" as="geometry" />
        </mxCell>
        <mxCell id="X7TEmBT8_0_ICSar0OiC-6" style="edgeStyle=orthogonalEdgeStyle;rounded=0;orthogonalLoop=1;jettySize=auto;html=1;" edge="1" parent="1" source="X7TEmBT8_0_ICSar0OiC-7" target="X7TEmBT8_0_ICSar0OiC-1">
          <mxGeometry relative="1" as="geometry" />
        </mxCell>
        <mxCell id="X7TEmBT8_0_ICSar0OiC-7" value="StudentID*" style="html=1;whiteSpace=wrap;ellipse;fontSize=11;fontColor=#ffffff;fontStyle=2;spacing=5;strokeOpacity=0;fillOpacity=100;rounded=1;absoluteArcSize=1;arcSize=9.6;fillColor=#ff9e56;strokeWidth=1.2;" vertex="1" parent="1">
          <mxGeometry x="1396" y="624" width="110" height="48" as="geometry" />
        </mxCell>
        <mxCell id="X7TEmBT8_0_ICSar0OiC-10" style="edgeStyle=orthogonalEdgeStyle;rounded=0;orthogonalLoop=1;jettySize=auto;html=1;exitX=0.5;exitY=1;exitDx=0;exitDy=0;" edge="1" parent="1" source="X7TEmBT8_0_ICSar0OiC-11" target="X7TEmBT8_0_ICSar0OiC-1">
          <mxGeometry relative="1" as="geometry" />
        </mxCell>
        <mxCell id="X7TEmBT8_0_ICSar0OiC-11" value="LecturerID*" style="html=1;whiteSpace=wrap;ellipse;fontSize=11;fontColor=#ffffff;fontStyle=2;spacing=5;strokeOpacity=0;fillOpacity=100;rounded=1;absoluteArcSize=1;arcSize=9.6;fillColor=#ff9e56;strokeWidth=1.2;" vertex="1" parent="1">
          <mxGeometry x="1286" y="580" width="110" height="48" as="geometry" />
        </mxCell>
      </root>
    </mxGraphModel>
  </diagram>
</mxfile>
